<?xml version="1.0" encoding="utf-8"?>
<!-- Generator: Adobe Illustrator 24.0.1, SVG Export Plug-In . SVG Version: 6.00 Build 0)  -->
<svg version="1.1" xmlns="http://www.w3.org/2000/svg" xmlns:xlink="http://www.w3.org/1999/xlink" x="0px" y="0px"
	 viewBox="0 0 500 500" style="enable-background:new 0 0 500 500;" xml:space="preserve">
<style type="text/css">
	.st0{display:none;}
	.st1{display:inline;}
	.st2{fill:#407BFF;}
	.st3{opacity:0.9;fill:#FFFFFF;}
	.st4{fill:#B55B52;}
	.st5{fill:#263238;}
	.st6{fill:#B65B52;}
	.st7{opacity:0.2;}
	.st8{opacity:0.4;}
	.st9{opacity:0.3;}
	.st10{opacity:0.5;fill:#FFFFFF;}
	.st11{fill:#A02724;}
</style>
<g id="Background_Complete">
</g>
<g id="Background_Simple" class="st0">
	<g class="st1">
		<path class="st2" d="M219.34,157.23c56.43,4.2,80.72-33.9,136.64-29.61c49.91,3.82,84.61,30.9,73.42,68.05
			c-9.94,32.98-59.02,43.88-76.15,74.87c-18.16,32.85-32.13,68.21-88.01,80.23c-109.72,23.61-164.4-80.45-172.6-140.5
			c-3.15-23.05-8.82-78.18,30.04-85.79C161.8,116.8,184.73,154.65,219.34,157.23z"/>
		<path class="st3" d="M219.34,157.23c56.43,4.2,80.72-33.9,136.64-29.61c49.91,3.82,84.61,30.9,73.42,68.05
			c-9.94,32.98-59.02,43.88-76.15,74.87c-18.16,32.85-32.13,68.21-88.01,80.23c-109.72,23.61-164.4-80.45-172.6-140.5
			c-3.15-23.05-8.82-78.18,30.04-85.79C161.8,116.8,184.73,154.65,219.34,157.23z"/>
	</g>
</g>
<g id="Shadow_1_">
</g>
<g id="Character_1_">
	<g>
		<polygon class="st4" points="274.35,403.27 266.67,401.46 270.92,383.02 278.59,384.83 		"/>
		<polygon class="st4" points="333.27,408.04 325.25,408.04 324.3,389.45 332.33,389.45 		"/>
		<path class="st5" d="M323.93,407.11h9.79c0.33,0,0.61,0.23,0.68,0.55l1.59,7.13c0.16,0.74-0.42,1.44-1.18,1.43
			c-3.15-0.05-5.45-0.24-9.41-0.24c-2.44,0-7.8,0.25-11.17,0.25c-3.3,0-3.81-3.33-2.43-3.63c6.18-1.35,8.85-3.22,10.83-5
			C322.99,407.29,323.45,407.11,323.93,407.11z"/>
		<path class="st5" d="M266.31,400.52l8.54,1.99c0.32,0.07,0.54,0.36,0.54,0.69l-0.08,7.31c-0.01,0.76-0.71,1.31-1.45,1.13
			c-3.07-0.77-7.47-1.99-11.34-2.9c-4.53-1.06-4.61-0.88-9.92-2.12c-3.21-0.75-3.34-4.2-1.93-4.18c6.43,0.09,7.58,0.27,13.62-1.75
			C264.94,400.47,265.64,400.36,266.31,400.52z"/>
		<path class="st6" d="M307.65,160.72c-3.64,4.91-7.07,9.85-10.39,14.94c-1.65,2.54-3.3,5.1-4.87,7.72c-1.6,2.6-3.15,5.25-4.63,7.97
			l-0.56,1.02l-0.28,0.51l-0.44,0.86c-0.29,0.69-0.59,1.38-0.78,2.45c-0.17,1.01-0.24,2.39,0.31,3.9c0.53,1.5,1.61,2.69,2.54,3.34
			c0.94,0.68,1.79,1.01,2.48,1.23l7.53-9.55c2.8-4.24,5.74-8.48,8.7-12.7l10.23-14.57L307.65,160.72z"/>
		<polygon class="st7" points="270.92,383.02 268.73,392.53 276.41,394.34 278.6,384.84 		"/>
		<g>
			<path class="st2" d="M322.72,162.46c2.18,7.36-10.71,21.47-10.71,21.47L296.41,174c0,0,3.2-5.52,9.25-13.38
				C312.24,152.05,320.08,153.55,322.72,162.46z"/>
			<path class="st8" d="M322.72,162.46c2.18,7.36-10.71,21.47-10.71,21.47L296.41,174c0,0,3.2-5.52,9.25-13.38
				C312.24,152.05,320.08,153.55,322.72,162.46z"/>
		</g>
		<polygon class="st7" points="332.33,389.46 324.3,389.46 324.79,399.04 332.82,399.04 		"/>
		<g>
			<path class="st2" d="M355.5,165.26c-9.41,28.61-10.22,58.37-11.17,64.59c-6.26-0.66-29.84-3.21-42.69-4.59
				c-3.39-37.9,6.14-61.09,9.55-67.99c0.68-1.37,2.01-2.29,3.54-2.41c1.11-0.09,2.55-0.18,4.17-0.24c1.18-0.04,2.45-0.06,3.77-0.03
				c0.73,0.01,1.47,0.04,2.22,0.07c4.84,0.26,12.67,1.58,18.06,2.62c1.13,0.22,2.28,0.47,3.38,0.73c1.03,0.25,2.04,0.51,2.98,0.77
				c1.2,0.33,2.32,0.66,3.31,0.96C354.97,160.45,356.27,162.94,355.5,165.26z"/>
			<path class="st9" d="M355.5,165.26c-9.41,28.61-10.22,58.37-11.17,64.59c-6.26-0.66-29.84-3.21-42.69-4.59
				c-3.39-37.9,6.14-61.09,9.55-67.99c0.68-1.37,2.01-2.29,3.54-2.41c1.11-0.09,2.55-0.18,4.17-0.24c1.18-0.04,2.45-0.06,3.77-0.03
				c0.73,0.01,1.47,0.04,2.22,0.07c4.84,0.26,12.67,1.58,18.06,2.62c1.13,0.22,2.28,0.47,3.38,0.73c1.03,0.25,2.04,0.51,2.98,0.77
				c1.2,0.33,2.32,0.66,3.31,0.96C354.97,160.45,356.27,162.94,355.5,165.26z"/>
		</g>
		<path class="st2" d="M322.37,154.59c0.1,0,0.21,0,0.31,0c0.73,0,1.47,0.03,2.22,0.07c4.83,0.26,12.67,1.58,18.06,2.61
			c0.87,0.17,1.74,0.36,2.6,0.56l-1.41,1.04c-4.17,3.09-8.96,5.88-15.74,5.41c-0.29-0.02-0.58-0.04-0.87-0.07
			c-3.45-0.38-5.59-1.66-6.37-3.83C320.46,158.39,321.2,156.27,322.37,154.59z"/>
		<path class="st4" d="M344.12,136.68c-1.98,5.65-4.66,16.13-1.16,20.6c-3.61,2.68-8.27,5.71-15.2,4.95
			c-6.94-0.76-5.04-5.33-2.86-7.57c6.7-0.61,7.23-5.44,6.76-10.12L344.12,136.68z"/>
		<path class="st7" d="M339.04,139.89l-7.37,4.65c0.12,1.11,0.17,2.22,0.09,3.29c2.53,0,6.32-2.22,6.96-4.78
			C339.03,141.77,339.16,140.52,339.04,139.89z"/>
		<path class="st5" d="M331.33,128.11l2.95,0.41c3.78-0.09,10.75-7.7,8.24-14.28C334.08,112.77,325.23,116.94,331.33,128.11z"/>
		<path class="st4" d="M349.76,132.23c-4.14,6.81-6.21,11-11.67,12.74c-8.21,2.62-15.19-5.18-13.17-13.09
			c1.82-7.12,8.28-17.05,16.64-16.23C349.8,116.47,353.9,125.42,349.76,132.23z"/>
		<path class="st5" d="M354.56,122.22l-2.98,0.07c-3.72,0.7-9.38,9.32-5.85,15.42C354.17,139.16,364.5,131.28,354.56,122.22z"/>
		<path class="st5" d="M349.42,125.07c-7.66-1.62-15.1-10.42-14.72-15.87c0.4-5.76,8.49-2.72,10.01-0.9
			c-0.24-3.18,2.01-2.43,3.53-0.48c1.51,1.95,3.44,8.97,9.22,14.09C361.3,125.33,358.19,126.93,349.42,125.07z"/>
		<path class="st5" d="M356.39,124.97c0,0,3.19,1.28,3.94,0.25C360.92,127.46,358.61,127.19,356.39,124.97z"/>
		<path class="st4" d="M348.86,141.65c-1.85,1.09-4.03,1.23-5.73,0.76c-2.56-0.7-2.48-3.32-0.63-5.03c1.67-1.53,5.01-3.01,7.03-1.39
			C351.52,137.59,350.97,140.41,348.86,141.65z"/>
		<path class="st2" d="M302.59,310.98c5.1-17.1,27.12-82.7,27.12-82.7l-28.06-3.02c0,0-15.98,58.6-20.05,82.76
			c-4.23,25.12-15.61,80.3-15.61,80.3l13.72,3.78C279.71,392.09,297.49,328.08,302.59,310.98z"/>
		<path class="st7" d="M319.25,244.51c-6.93,10.78-10.5,34.46-10.74,47.76c4.56-14.03,10.46-31.82,14.88-45.07
			C321.62,245.92,320.01,244.86,319.25,244.51z"/>
		<path class="st2" d="M316.79,226.88c0,0-2.29,65.91-1.36,89.41c1.01,25.73,5.67,80.89,5.67,80.89h14.7c0,0-1.37-54.94-0.17-80.02
			c1.36-28.57,8.71-87.31,8.71-87.31L316.79,226.88z"/>
		<g>
			<polygon class="st2" points="319.89,397.5 337.2,397.5 337.2,392.33 319.01,391.5 			"/>
			<polygon class="st10" points="319.89,397.5 337.2,397.5 337.2,392.33 319.01,391.5 			"/>
		</g>
		<g>
			<polygon class="st2" points="264.45,389.95 280.22,393.64 281.41,388.54 265.39,383.93 			"/>
			<polygon class="st10" points="264.45,389.95 280.22,393.64 281.41,388.54 265.39,383.93 			"/>
		</g>
		<path class="st5" d="M338.06,128.57c-0.3,0.57-0.85,0.88-1.22,0.68c-0.37-0.2-0.43-0.82-0.13-1.39s0.85-0.88,1.22-0.68
			C338.3,127.38,338.36,128,338.06,128.57z"/>
		<path class="st5" d="M331.58,125.16c-0.3,0.57-0.85,0.88-1.22,0.68c-0.37-0.2-0.43-0.82-0.13-1.39c0.3-0.57,0.85-0.88,1.22-0.68
			C331.83,123.97,331.88,124.59,331.58,125.16z"/>
		<path class="st11" d="M333.49,126.53c0,0-3.04,2.62-5.32,3.46c0.52,1.48,2.47,1.95,2.47,1.95L333.49,126.53z"/>
		<path class="st5" d="M332.25,134.75c2.33,0.85,4.14-0.13,4.23-0.17c0.09-0.05,0.12-0.17,0.07-0.26c-0.05-0.09-0.17-0.12-0.26-0.07
			c-0.02,0.01-2.13,1.15-4.63-0.17c-0.09-0.05-0.21-0.01-0.26,0.08c-0.05,0.09-0.01,0.21,0.08,0.26
			C331.74,134.54,332,134.66,332.25,134.75z"/>
		<path class="st5" d="M342.57,125.85c0.06,0.02,0.13,0.03,0.19,0.02c0.21-0.03,0.35-0.23,0.31-0.44c-0.34-2.08-1.94-2.8-2.01-2.83
			c-0.19-0.08-0.42,0-0.5,0.19c-0.08,0.19,0,0.42,0.19,0.5l0,0c0.05,0.02,1.29,0.6,1.57,2.26
			C342.35,125.7,342.45,125.81,342.57,125.85z"/>
		<path class="st5" d="M333.71,121.14c-0.09-0.08-0.22-0.11-0.35-0.08c-1.61,0.46-2.67-0.41-2.71-0.44
			c-0.16-0.14-0.4-0.12-0.54,0.04c-0.14,0.16-0.12,0.4,0.04,0.53c0.06,0.05,1.4,1.18,3.42,0.6c0.2-0.06,0.32-0.27,0.26-0.47
			C333.81,121.25,333.77,121.19,333.71,121.14z"/>
		<g>
			<path class="st2" d="M321.28,408.52c0.74,0,1.54-0.15,2.1-0.29c0.07-0.02,0.13-0.08,0.14-0.15c0.01-0.08-0.02-0.15-0.09-0.19
				c-0.29-0.18-2.88-1.77-3.77-1.32c-0.14,0.07-0.31,0.22-0.33,0.54c-0.03,0.43,0.11,0.76,0.39,1
				C320.1,408.41,320.67,408.52,321.28,408.52z M322.83,407.96c-1.36,0.27-2.41,0.22-2.85-0.14c-0.19-0.16-0.28-0.39-0.26-0.69
				c0.01-0.15,0.07-0.2,0.12-0.22C320.3,406.66,321.78,407.35,322.83,407.96z"/>
			<path class="st2" d="M323.34,408.23c0.04,0,0.07-0.01,0.1-0.03c0.06-0.04,0.09-0.1,0.09-0.17c-0.01-0.1-0.2-2.41-1.13-3.18
				c-0.24-0.2-0.52-0.28-0.81-0.24c0,0,0,0,0,0c-0.45,0.06-0.57,0.34-0.6,0.5c-0.17,0.89,1.44,2.65,2.27,3.1
				C323.27,408.22,323.3,408.23,323.34,408.23z M321.72,404.98c0.16,0,0.3,0.05,0.44,0.17c0.6,0.49,0.85,1.84,0.95,2.51
				c-0.83-0.63-1.85-1.96-1.75-2.48c0.01-0.05,0.03-0.16,0.28-0.19l0,0C321.66,404.98,321.69,404.98,321.72,404.98z"/>
			<path class="st2" d="M265.29,401.42c0.07-0.01,0.13-0.05,0.16-0.12c0.03-0.08,0.01-0.16-0.05-0.21
				c-0.31-0.27-3.08-2.59-4.16-2.29c-0.21,0.06-0.35,0.21-0.42,0.42c0,0,0,0,0,0c-0.11,0.36-0.07,0.69,0.14,0.98
				c0.68,0.96,2.99,1.17,4.31,1.22C265.27,401.42,265.28,401.42,265.29,401.42z M261.42,399.15c0.64-0.07,2.19,0.98,3.29,1.86
				c-1.79-0.12-3.06-0.49-3.44-1.03c-0.13-0.19-0.16-0.4-0.08-0.65c0.03-0.1,0.08-0.15,0.16-0.17
				C261.37,399.16,261.39,399.16,261.42,399.15z"/>
			<path class="st2" d="M265.29,401.42c0.02,0,0.04-0.01,0.05-0.01c0.06-0.03,0.11-0.08,0.12-0.15c0.01-0.09,0.29-2.25-0.51-3.29
				c-0.25-0.32-0.57-0.51-0.95-0.56l0,0c-0.52-0.07-0.73,0.16-0.81,0.36c-0.35,0.85,1.13,2.98,1.97,3.62
				C265.19,401.41,265.24,401.43,265.29,401.42z M263.75,397.78c0.05-0.01,0.12,0,0.2,0.01h0c0.29,0.04,0.52,0.17,0.7,0.41
				c0.53,0.69,0.51,2.01,0.47,2.65c-0.83-0.8-1.79-2.43-1.58-2.94C263.55,397.87,263.58,397.79,263.75,397.78z M263.97,397.59
				L263.97,397.59L263.97,397.59z"/>
		</g>
		<g>
			<path class="st6" d="M357.77,172.07c-0.79,1.49-1.54,2.76-2.36,4.08c-0.81,1.31-1.61,2.61-2.47,3.87
				c-1.7,2.54-3.51,5.01-5.39,7.43c-1.9,2.4-3.86,4.76-5.96,7.02l-0.81,0.89c-0.47,0.52-1.06,1.11-1.95,1.7
				c-0.47,0.3-0.99,0.59-1.68,0.82c-0.67,0.23-1.46,0.39-2.29,0.4c-1.69,0.02-3.2-0.64-4.1-1.27c-0.95-0.65-1.49-1.28-1.96-1.85
				c-0.44-0.57-0.77-1.08-1.04-1.57c-0.55-0.98-0.92-1.86-1.24-2.71c-1.23-3.36-1.84-6.39-2.37-9.45c-0.53-3.04-0.9-6.05-1.19-9.06
				c-0.59-6.01-0.87-11.96-0.87-17.98l6-0.52c1.08,5.72,2.22,11.5,3.46,17.14c0.63,2.82,1.29,5.62,2.03,8.34
				c0.75,2.68,1.58,5.41,2.57,7.52c0.24,0.51,0.5,0.97,0.71,1.26c0.1,0.14,0.19,0.24,0.21,0.24c0.01-0.01-0.02-0.09-0.35-0.34
				c-0.29-0.22-1.08-0.62-2.03-0.6c-0.95,0-1.63,0.35-1.9,0.52c-0.29,0.18-0.33,0.24-0.32,0.21l0.6-0.81
				c1.69-2.27,3.35-4.57,4.94-6.92c1.61-2.34,3.16-4.72,4.69-7.12l2.27-3.6l2.14-3.54L357.77,172.07z"/>
			<path class="st6" d="M291.04,204.68c1.43,0.44,2.5,0.52,3.51,0.58c2,0.07,3.69-0.09,5.34-0.33c1.65-0.24,3.22-0.54,4.77-0.88
				c6.17-1.42,11.92-3.37,17.66-5.72l-1.3-5.76c-2.89,0.44-6.24,0.9-9.16,1.29c-2.91,0.4-5.82,0.79-8.66,1.02
				c-1.42,0.13-2.82,0.22-4.16,0.25c-0.16,0-0.32,0-0.48,0"/>
			<path class="st4" d="M319.28,192.82l6.43-1.36l1.39,9.52c0,0-7.14,1.1-9.32-4.32L319.28,192.82z"/>
			<polygon class="st4" points="332.96,194.42 331.73,200.27 327.1,200.98 325.71,191.46 			"/>
			<g>
				<path class="st2" d="M359.11,165.79c3.47,6.85-6.68,23.04-6.68,23.04l-17.13-6.97c0,0,2.16-6.01,6.69-14.83
					C346.93,157.43,354.91,157.5,359.11,165.79z"/>
				<path class="st9" d="M359.11,165.79c3.47,6.85-6.68,23.04-6.68,23.04l-17.13-6.97c0,0,2.16-6.01,6.69-14.83
					C346.93,157.43,354.91,157.5,359.11,165.79z"/>
			</g>
			<path class="st4" d="M328.88,155.8l0.6-8.13l-9.47,1.71c0,0,0.35,7.46,4.28,8.06L328.88,155.8z"/>
			<polygon class="st4" points="326.71,140.03 318.65,142.98 320.01,149.38 329.48,147.67 			"/>
		</g>
	</g>
</g>
<g id="Thoughts">
</g>
</svg>
