<?xml version="1.0" encoding="utf-8"?>
<!-- Generator: Adobe Illustrator 24.0.1, SVG Export Plug-In . SVG Version: 6.00 Build 0)  -->
<svg version="1.1" id="Camada_1" xmlns="http://www.w3.org/2000/svg" xmlns:xlink="http://www.w3.org/1999/xlink" x="0px" y="0px"
	 viewBox="0 0 262 768" style="enable-background:new 0 0 262 768;" xml:space="preserve">
<style type="text/css">
	.st0{fill:#B55B52;}
	.st1{fill:#263238;}
	.st2{fill:#B65B52;}
	.st3{opacity:0.2;enable-background:new    ;}
	.st4{fill:#407BFF;}
	.st5{opacity:0.4;enable-background:new    ;}
	.st6{opacity:0.3;enable-background:new    ;}
	.st7{opacity:0.5;fill:#FFFFFF;enable-background:new    ;}
	.st8{fill:#A02724;}
</style>
<g id="Character_1_">
	<g>
		<polygon class="st0" points="58.12,735.93 39.93,731.45 49.99,685.82 68.16,690.3 		"/>
		<polygon class="st0" points="197.68,747.73 178.68,747.73 176.43,701.74 195.46,701.74 		"/>
		<path class="st1" d="M175.56,745.43h23.19c0.78,0,1.44,0.57,1.61,1.36l3.77,17.64c0.38,1.83-0.99,3.56-2.8,3.54
			c-7.46-0.12-12.91-0.59-22.29-0.59c-5.78,0-18.48,0.62-26.46,0.62c-7.82,0-9.02-8.24-5.76-8.98c14.64-3.34,20.96-7.97,25.65-12.37
			C173.33,745.88,174.42,745.43,175.56,745.43z"/>
		<path class="st1" d="M39.07,729.13l20.23,4.92c0.76,0.17,1.28,0.89,1.28,1.71l-0.19,18.09c-0.02,1.88-1.68,3.24-3.43,2.8
			c-7.27-1.91-17.69-4.92-26.86-7.18c-10.73-2.62-10.92-2.18-23.5-5.25c-7.6-1.86-7.91-10.39-4.57-10.34
			c15.23,0.22,17.95,0.67,32.26-4.33C35.83,729,37.49,728.73,39.07,729.13z"/>
		<path class="st2" d="M137,135.76c-8.62,12.15-16.75,24.37-24.61,36.97c-3.91,6.29-7.82,12.62-11.54,19.1
			c-3.79,6.43-7.46,12.99-10.97,19.72l-1.33,2.52l-0.66,1.26l-1.04,2.13c-0.69,1.71-1.4,3.41-1.85,6.06
			c-0.4,2.5-0.57,5.91,0.73,9.65c1.26,3.71,3.81,6.66,6.02,8.26c2.23,1.68,4.24,2.5,5.87,3.04l17.84-23.63
			c6.63-10.49,13.6-20.98,20.61-31.43l24.23-36.05L137,135.76z"/>
		<polygon class="st3" points="49.99,685.82 44.81,709.36 63,713.84 68.18,690.33 		"/>
		<g>
			<path class="st4" d="M172.69,140.07c5.16,18.21-25.37,53.13-25.37,53.13l-36.95-24.57c0,0,7.58-13.66,21.91-33.11
				C147.87,114.31,166.44,118.02,172.69,140.07z"/>
			<path class="st5" d="M172.69,140.07c5.16,18.21-25.37,53.13-25.37,53.13l-36.95-24.57c0,0,7.58-13.66,21.91-33.11
				C147.87,114.31,166.44,118.02,172.69,140.07z"/>
		</g>
		<polygon class="st3" points="195.46,701.76 176.43,701.76 177.6,725.46 196.62,725.46 		"/>
		<g>
			<path class="st4" d="M250.34,147c-22.29,70.79-24.21,144.43-26.46,159.82c-14.83-1.63-70.68-7.94-101.12-11.36
				c-8.03-93.78,14.54-151.16,22.62-168.24c1.61-3.39,4.76-5.67,8.39-5.96c2.63-0.22,6.04-0.45,9.88-0.59
				c2.8-0.1,5.8-0.15,8.93-0.07c1.73,0.02,3.48,0.1,5.26,0.17c11.46,0.64,30.01,3.91,42.78,6.48c2.68,0.54,5.4,1.16,8.01,1.81
				c2.44,0.62,4.83,1.26,7.06,1.91c2.84,0.82,5.5,1.63,7.84,2.38C249.08,135.09,252.16,141.25,250.34,147z"/>
			<path class="st6" d="M250.34,147c-22.29,70.79-24.21,144.43-26.46,159.82c-14.83-1.63-70.68-7.94-101.12-11.36
				c-8.03-93.78,14.54-151.16,22.62-168.24c1.61-3.39,4.76-5.67,8.39-5.96c2.63-0.22,6.04-0.45,9.88-0.59
				c2.8-0.1,5.8-0.15,8.93-0.07c1.73,0.02,3.48,0.1,5.26,0.17c11.46,0.64,30.01,3.91,42.78,6.48c2.68,0.54,5.4,1.16,8.01,1.81
				c2.44,0.62,4.83,1.26,7.06,1.91c2.84,0.82,5.5,1.63,7.84,2.38C249.08,135.09,252.16,141.25,250.34,147z"/>
		</g>
		<path class="st4" d="M171.86,120.59c0.24,0,0.5,0,0.73,0c1.73,0,3.48,0.07,5.26,0.17c11.44,0.64,30.01,3.91,42.78,6.46
			c2.06,0.42,4.12,0.89,6.16,1.39l-3.34,2.57c-9.88,7.65-21.22,14.55-37.28,13.39c-0.69-0.05-1.37-0.1-2.06-0.17
			c-8.17-0.94-13.24-4.11-15.09-9.48C167.34,130,169.09,124.75,171.86,120.59z"/>
		<path class="st0" d="M223.38,76.28c-4.69,13.98-11.04,39.91-2.75,50.97c-8.55,6.63-19.59,14.13-36,12.25
			c-16.44-1.88-11.94-13.19-6.77-18.73c15.87-1.51,17.13-13.46,16.01-25.04L223.38,76.28z"/>
		<path class="st3" d="M211.35,84.22l-17.46,11.51c0.28,2.75,0.4,5.49,0.21,8.14c5.99,0,14.97-5.49,16.49-11.83
			C211.33,88.87,211.63,85.78,211.35,84.22z"/>
		<path class="st1" d="M193.09,55.07l6.99,1.01c8.95-0.22,25.46-19.05,19.52-35.33C199.6,17.11,178.64,27.43,193.09,55.07z"/>
		<path class="st0" d="M236.74,65.27c-9.81,16.85-14.71,27.22-27.64,31.52c-19.45,6.48-35.98-12.82-31.2-32.39
			c4.31-17.62,19.61-42.19,39.42-40.16C236.84,26.27,246.55,48.41,236.74,65.27z"/>
		<path class="st1" d="M248.11,40.5l-7.06,0.17c-8.81,1.73-22.22,23.06-13.86,38.16C247.19,82.41,271.66,62.91,248.11,40.5z"/>
		<path class="st1" d="M235.94,47.55c-18.14-4.01-35.77-25.78-34.87-39.27c0.95-14.25,20.11-6.73,23.71-2.23
			c-0.57-7.87,4.76-6.01,8.36-1.19c3.58,4.83,8.15,22.2,21.84,34.86C264.08,48.19,256.71,52.15,235.94,47.55z"/>
		<path class="st1" d="M252.45,47.3c0,0,7.56,3.17,9.33,0.62C263.18,53.46,257.7,52.79,252.45,47.3z"/>
		<path class="st0" d="M234.61,88.57c-4.38,2.7-9.55,3.04-13.57,1.88c-6.06-1.73-5.87-8.22-1.49-12.45
			c3.96-3.79,11.87-7.45,16.65-3.44C240.91,78.53,239.61,85.51,234.61,88.57z"/>
		<path class="st4" d="M125.01,507.57c12.08-42.31,64.24-204.63,64.24-204.63l-66.47-7.47c0,0-37.85,145-47.49,204.78
			c-10.02,62.16-36.98,198.7-36.98,198.7l32.5,9.35C70.81,708.27,112.93,549.88,125.01,507.57z"/>
		<path class="st3" d="M164.47,343.09c-16.42,26.67-24.87,85.27-25.44,118.18c10.8-34.72,24.78-78.74,35.25-111.52
			C170.09,346.58,166.27,343.96,164.47,343.09z"/>
		<path class="st4" d="M158.65,299.47c0,0-5.42,163.09-3.22,221.24c2.39,63.67,13.43,200.16,13.43,200.16h34.82
			c0,0-3.25-135.94-0.4-198c3.22-70.69,20.63-216.04,20.63-216.04L158.65,299.47z"/>
		<g>
			<polygon class="st4" points="165.99,721.65 206.99,721.65 206.99,708.86 163.9,706.81 			"/>
			<polygon class="st7" points="165.99,721.65 206.99,721.65 206.99,708.86 163.9,706.81 			"/>
		</g>
		<g>
			<polygon class="st4" points="34.67,702.97 72.02,712.1 74.84,699.48 36.89,688.08 			"/>
			<polygon class="st7" points="34.67,702.97 72.02,712.1 74.84,699.48 36.89,688.08 			"/>
		</g>
		<path class="st1" d="M209.03,56.21c-0.71,1.41-2.01,2.18-2.89,1.68c-0.88-0.49-1.02-2.03-0.31-3.44s2.01-2.18,2.89-1.68
			S209.74,54.8,209.03,56.21z"/>
		<path class="st1" d="M193.68,47.77c-0.71,1.41-2.01,2.18-2.89,1.68c-0.88-0.49-1.02-2.03-0.31-3.44c0.71-1.41,2.01-2.18,2.89-1.68
			C194.27,44.83,194.39,46.36,193.68,47.77z"/>
		<path class="st8" d="M198.2,51.16c0,0-7.2,6.48-12.6,8.56c1.23,3.66,5.85,4.83,5.85,4.83L198.2,51.16z"/>
		<path class="st1" d="M195.27,71.5c5.52,2.1,9.81-0.32,10.02-0.42c0.21-0.12,0.28-0.42,0.17-0.64c-0.12-0.22-0.4-0.3-0.62-0.17
			c-0.05,0.02-5.05,2.85-10.97-0.42c-0.21-0.12-0.5-0.02-0.62,0.2c-0.12,0.22-0.02,0.52,0.19,0.64
			C194.06,70.98,194.67,71.28,195.27,71.5z"/>
		<path class="st1" d="M219.71,49.48c0.14,0.05,0.31,0.07,0.45,0.05c0.5-0.07,0.83-0.57,0.73-1.09c-0.81-5.15-4.6-6.93-4.76-7
			c-0.45-0.2-0.99,0-1.18,0.47c-0.19,0.47,0,1.04,0.45,1.24l0,0c0.12,0.05,3.06,1.48,3.72,5.59
			C219.19,49.11,219.43,49.38,219.71,49.48z"/>
		<path class="st1" d="M198.72,37.82c-0.21-0.2-0.52-0.27-0.83-0.2c-3.81,1.14-6.32-1.01-6.42-1.09c-0.38-0.35-0.95-0.3-1.28,0.1
			c-0.33,0.4-0.28,0.99,0.09,1.31c0.14,0.12,3.32,2.92,8.1,1.48c0.47-0.15,0.76-0.67,0.62-1.16
			C198.96,38.1,198.87,37.95,198.72,37.82z"/>
		<g>
			<path class="st4" d="M169.28,748.92c1.75,0,3.65-0.37,4.97-0.72c0.17-0.05,0.31-0.2,0.33-0.37c0.02-0.2-0.05-0.37-0.21-0.47
				c-0.69-0.45-6.82-4.38-8.93-3.27c-0.33,0.17-0.73,0.54-0.78,1.34c-0.07,1.06,0.26,1.88,0.92,2.47
				C166.49,748.65,167.84,748.92,169.28,748.92z M172.95,747.54c-3.22,0.67-5.71,0.54-6.75-0.35c-0.45-0.4-0.66-0.97-0.62-1.71
				c0.02-0.37,0.17-0.49,0.28-0.54C166.96,744.32,170.47,746.03,172.95,747.54z"/>
			<path class="st4" d="M174.16,748.2c0.09,0,0.17-0.02,0.24-0.07c0.14-0.1,0.21-0.25,0.21-0.42c-0.02-0.25-0.47-5.96-2.68-7.87
				c-0.57-0.49-1.23-0.69-1.92-0.59l0,0c-1.07,0.15-1.35,0.84-1.42,1.24c-0.4,2.2,3.41,6.56,5.38,7.67
				C173.99,748.18,174.07,748.2,174.16,748.2z M170.32,740.16c0.38,0,0.71,0.12,1.04,0.42c1.42,1.21,2.01,4.55,2.25,6.21
				c-1.97-1.56-4.38-4.85-4.15-6.14c0.02-0.12,0.07-0.4,0.66-0.47l0,0C170.18,740.16,170.25,740.16,170.32,740.16z"/>
			<path class="st4" d="M36.66,731.35c0.17-0.02,0.31-0.12,0.38-0.3c0.07-0.2,0.02-0.4-0.12-0.52c-0.73-0.67-7.3-6.41-9.85-5.67
				c-0.5,0.15-0.83,0.52-0.99,1.04l0,0c-0.26,0.89-0.17,1.71,0.33,2.42c1.61,2.38,7.08,2.9,10.21,3.02
				C36.61,731.35,36.63,731.35,36.66,731.35z M27.49,725.74c1.52-0.17,5.19,2.42,7.79,4.6c-4.24-0.3-7.25-1.21-8.15-2.55
				c-0.31-0.47-0.38-0.99-0.19-1.61c0.07-0.25,0.19-0.37,0.38-0.42C27.37,725.76,27.42,725.76,27.49,725.74z"/>
			<path class="st4" d="M36.66,731.35c0.05,0,0.09-0.02,0.12-0.02c0.14-0.07,0.26-0.2,0.28-0.37c0.02-0.22,0.69-5.57-1.21-8.14
				c-0.59-0.79-1.35-1.26-2.25-1.39l0,0c-1.23-0.17-1.73,0.4-1.92,0.89c-0.83,2.1,2.68,7.37,4.67,8.96
				C36.42,731.33,36.54,731.38,36.66,731.35z M33.01,722.35c0.12-0.02,0.28,0,0.47,0.02l0,0c0.69,0.1,1.23,0.42,1.66,1.01
				c1.26,1.71,1.21,4.97,1.11,6.56c-1.97-1.98-4.24-6.01-3.74-7.27C32.54,722.57,32.61,722.37,33.01,722.35z M33.53,721.88
				L33.53,721.88L33.53,721.88z"/>
		</g>
		<g>
			<path class="st2" d="M255.71,163.85c-1.87,3.69-3.65,6.83-5.59,10.1c-1.92,3.24-3.81,6.46-5.85,9.58
				c-4.03,6.29-8.31,12.4-12.77,18.38c-4.5,5.94-9.14,11.78-14.12,17.37l-1.92,2.2c-1.11,1.29-2.51,2.75-4.62,4.21
				c-1.11,0.74-2.34,1.46-3.98,2.03c-1.59,0.57-3.46,0.97-5.42,0.99c-4,0.05-7.58-1.58-9.71-3.14c-2.25-1.61-3.53-3.17-4.64-4.58
				c-1.04-1.41-1.82-2.67-2.46-3.88c-1.3-2.42-2.18-4.6-2.94-6.71c-2.91-8.31-4.36-15.81-5.61-23.38
				c-1.26-7.52-2.13-14.97-2.82-22.42c-1.4-14.87-2.06-29.59-2.06-44.49l14.21-1.29c2.56,14.15,5.26,28.46,8.2,42.41
				c1.49,6.98,3.06,13.91,4.81,20.64c1.78,6.63,3.74,13.39,6.09,18.61c0.57,1.26,1.18,2.4,1.68,3.12c0.24,0.35,0.45,0.59,0.5,0.59
				c0.02-0.02-0.05-0.22-0.83-0.84c-0.69-0.54-2.56-1.53-4.81-1.48c-2.25,0-3.86,0.87-4.5,1.29c-0.69,0.45-0.78,0.59-0.76,0.52
				l1.42-2c4-5.62,7.94-11.31,11.7-17.12c3.81-5.79,7.49-11.68,11.11-17.62l5.38-8.91l5.07-8.76L255.71,163.85z"/>
			<path class="st2" d="M97.65,244.54c3.39,1.09,5.92,1.29,8.31,1.44c4.74,0.17,8.74-0.22,12.65-0.82c3.91-0.59,7.63-1.34,11.3-2.18
				c14.61-3.51,28.23-8.34,41.83-14.15l-3.08-14.25c-6.85,1.09-14.78,2.23-21.7,3.19c-6.89,0.99-13.79,1.95-20.51,2.52
				c-3.36,0.32-6.68,0.54-9.85,0.62c-0.38,0-0.76,0-1.14,0"/>
			<path class="st0" d="M164.54,215.19l15.23-3.37l3.29,23.56c0,0-16.91,2.72-22.08-10.69L164.54,215.19z"/>
			<polygon class="st0" points="196.95,219.15 194.03,233.62 183.07,235.38 179.77,211.83 			"/>
			<g>
				<path class="st4" d="M258.89,148.31c8.22,16.95-15.82,57.01-15.82,57.01l-40.58-17.25c0,0,5.12-14.87,15.85-36.7
					C230.04,127.62,248.94,127.79,258.89,148.31z"/>
				<path class="st6" d="M258.89,148.31c8.22,16.95-15.82,57.01-15.82,57.01l-40.58-17.25c0,0,5.12-14.87,15.85-36.7
					C230.04,127.62,248.94,127.79,258.89,148.31z"/>
			</g>
			<path class="st0" d="M187.28,123.59l1.42-20.12l-22.43,4.23c0,0,0.83,18.46,10.14,19.94L187.28,123.59z"/>
			<polygon class="st0" points="182.14,84.57 163.05,91.87 166.27,107.7 188.7,103.47 			"/>
		</g>
	</g>
</g>
</svg>
